<svg width="600" height="600" viewBox="0 0 600 600" fill="none" xmlns="http://www.w3.org/2000/svg">
<path d="M188 190H412" stroke="white" stroke-width="76"/>
<path d="M299.988 43H300.012C314.327 42.9954 328.687 45.8479 341.916 51.3242C355.145 56.8003 367.319 64.9323 377.444 75.0547C387.569 85.1769 395.705 97.3482 401.185 110.575C406.966 124.531 410 138.415 410 152V190H452.5C464.854 190 473.948 192.404 489.424 198.815H489.425C502.652 204.295 514.823 212.431 524.945 222.556C535.068 232.681 543.2 244.855 548.676 258.084C554.152 271.313 557.004 285.672 557 299.988V300.011C557.004 314.328 554.152 328.688 548.676 341.916C543.2 355.145 535.068 367.319 524.945 377.444C514.823 387.569 502.652 395.705 489.425 401.185H489.424C474.736 407.27 465.415 409.521 452.468 409.521H409.521V447.521C409.521 461.839 406.664 476.197 401.185 489.424V489.425C395.705 502.652 387.57 514.823 377.444 524.945C367.319 535.068 355.145 543.2 341.916 548.676C328.687 554.152 314.328 557.004 300.012 557H299.988C285.673 557.005 271.313 554.152 258.084 548.676C244.855 543.2 232.681 535.068 222.556 524.945C212.43 514.823 204.295 502.652 198.815 489.425V489.424C193.336 476.197 190.479 461.839 190.479 447.521V409.521H147.532C134.585 409.521 125.264 407.27 110.576 401.185H110.575C97.3483 395.705 85.177 387.57 75.0547 377.444C64.9323 367.319 56.8004 355.145 51.3242 341.916C45.846 328.682 42.9926 314.325 43 300.02V299.988C42.9954 285.673 45.848 271.313 51.3242 258.084C56.8004 244.855 64.9323 232.681 75.0547 222.556C85.177 212.43 97.3483 204.295 110.575 198.815H110.576C126.051 192.404 135.146 190 147.5 190H190V152C190 138.415 193.034 124.531 198.815 110.575C204.295 97.3482 212.431 85.1769 222.556 75.0547C232.681 64.9323 244.855 56.8003 258.084 51.3242C271.313 45.848 285.672 42.9956 299.988 43Z" stroke="white" stroke-width="76"/>
</svg>
