<svg width="600" height="600" viewBox="0 0 600 600" fill="none" xmlns="http://www.w3.org/2000/svg">
<path d="M372 152V228H228V152H372Z" fill="#11EC39"/>
<path d="M152.479 447.521H147.532V371.521H228.479V447.521C228.479 456.848 230.352 466.264 233.922 474.88C237.492 483.496 242.827 491.478 249.422 498.071L250.044 498.687C256.517 504.997 264.271 510.109 272.618 513.564L273.428 513.895C281.825 517.248 290.944 519.003 299.976 519H300.023C309.347 519.003 318.764 517.132 327.382 513.564L328.189 513.226C336.497 509.664 344.189 504.459 350.578 498.071L351.193 497.449C357.506 490.979 362.62 483.227 366.078 474.88C369.648 466.264 371.521 456.848 371.522 447.521V371.521H452.468V447.521H447.522L447.51 449.331C447.278 468.034 443.45 486.688 436.291 503.969L435.588 505.637C428.215 522.827 417.539 538.595 404.311 551.819L403.022 553.092C389.631 566.151 373.734 576.632 356.451 583.786L354.774 584.468C337.404 591.407 318.705 595.006 300 595C281.295 595.006 262.596 591.407 245.226 584.468L243.549 583.786C226.266 576.632 210.369 566.151 196.978 553.092L195.689 551.819C182.461 538.595 171.785 522.827 164.412 505.637L163.709 503.969C156.55 486.688 152.722 468.034 152.49 449.331L152.479 447.521ZM372 152C372 144.138 370.251 135.193 366.078 125.12C362.62 116.773 357.506 109.022 351.193 102.551L350.578 101.929C343.983 95.3351 335.999 90.0017 327.382 86.4346C318.763 82.8669 309.347 80.997 300.024 81H299.977C290.653 80.9971 281.236 82.868 272.618 86.4356C264.271 89.8911 256.517 95.0028 250.044 101.313L249.422 101.929C242.827 108.522 237.492 116.504 233.922 125.12C229.749 135.193 228 144.138 228 152V228H147.5C142.438 228 138.723 228.43 127.474 232.96L125.12 233.922C116.774 237.38 109.022 242.494 102.551 248.807L101.929 249.422C95.3353 256.017 90.0017 264 86.4346 272.617L86.4356 272.618C82.8679 281.237 80.997 290.653 81 299.976V300.039C80.9952 309.342 82.864 318.754 86.4356 327.382C90.0027 335.999 95.335 343.983 101.929 350.578L102.551 351.193C109.022 357.506 116.774 362.62 125.12 366.078L127.201 366.928C137.204 370.939 141.358 371.521 147.532 371.521V447.521L145.736 447.51C127.917 447.285 114.22 443.694 97.6934 436.974L96.0313 436.291C78.7504 429.132 62.8553 418.646 49.4678 405.583L48.1807 404.311C34.9562 391.082 24.2853 375.311 16.917 358.119L16.2139 356.451C8.82879 338.611 4.99002 319.308 5.00002 300C4.99382 280.692 8.82879 261.389 16.2139 243.549C23.3682 226.266 33.8494 210.369 46.9082 196.978L48.1807 195.689C61.4053 182.461 77.1731 171.785 94.3633 164.412L96.0313 163.709C113.312 156.55 127.293 152.273 145.704 152.013L147.5 152H152C152 133.295 156.053 115.046 163.025 97.7061L163.709 96.0313C170.868 78.7505 181.354 62.8553 194.417 49.4678L195.689 48.1807C208.918 34.9562 224.689 24.2852 241.881 16.917L243.549 16.2139C261.389 8.82871 280.691 4.99401 300 5.00001L301.811 5.01075C320.514 5.23711 339.168 9.05955 356.451 16.2139C374.291 23.599 390.656 34.5296 404.311 48.1807C417.966 61.8319 428.901 78.1931 436.291 96.0313C443.681 113.869 448 132.692 448 152H452.5C471.809 152 486.131 156.319 503.969 163.709C521.807 171.099 538.168 182.034 551.819 195.689C565.47 209.344 576.401 225.709 583.786 243.549C591.171 261.389 595.006 280.692 595 300C595.006 319.308 591.171 338.611 583.786 356.451L583.083 358.119C575.715 375.311 565.044 391.082 551.819 404.311L550.532 405.583C537.145 418.646 521.25 429.132 503.969 436.291L502.307 436.974C485.78 443.694 472.083 447.285 454.264 447.51L452.468 447.521V371.521C459.054 371.521 463.341 370.859 474.88 366.078L475.686 365.738C483.993 362.174 491.684 356.967 498.071 350.578L498.687 349.956C504.997 343.483 510.11 335.729 513.565 327.382L513.895 326.572C517.247 318.177 519.003 309.057 519 300.022V299.977C519.003 290.944 517.248 281.824 513.895 273.428L513.565 272.618C510.11 264.271 504.997 256.517 498.687 250.044L498.071 249.422C491.684 243.033 483.993 237.826 475.686 234.262L474.88 233.922C461.767 228.489 457.9 228 452.5 228H372V152Z" fill="#11EC39"/>
</svg>
